# xmcd CD database file
# Copyright 1993-1996 (C) Ti Kan
#
# Track frame offsets:
#    150
#    21127
#    33685
#    51595
#    63972
#    78237
#    89795
#    104692
#    120975
#    138830
#    153692
#    171297
#    184357
#    199650
#    212225
#    241162
#    263512
#    280890
#    292295
#
# Disc length: 4185 seconds
#
# Revision: 0
# Processed by: cddbd v1.4b41PL1 Copyright (c) Steve Scherf et al.
# Submitted via: MyCDplayer 2.4.0c  (wjohn@fix.net)
#
DISCID=24105713
DTITLE=Various Artist - 
DTITLE=The BMG Collection: 1992 Volume 1 - Disc 3
DYEAR=1900
DGENRE=
TTITLE0=Something In Red - Lorrie Morgan
TTITLE1=There Ain't Nothing Wrong With The Radio
TTITLE2=Familier Pain - Restless heart
TTITLE3=Will I Do - Prairie Oyster
TTITLE4=Rock My baby - Shenandoah
TTITLE5=The Time Has Come - Martine McBride
TTITLE6=It's Who You Love - Don Williams
TTITLE7=What Kind Of Fool - Lee Roy Parnell
TTITLE8=Take It Like A Man - Michelle Wright
TTITLE9=Boot Scootin' Boogie - Brooks and Dunn
TTITLE10=A Woman Loves - Steve Wariner
TTITLE11=Straight Tequila Night - John Anderson
TTITLE12=Say Goodbye - B.B. Watson
TTITLE13=I Could Love You (With My Eyes Closed) - The
TTITLE14=A Movie Of A Placid Lake On A Moonless Night
TTITLE15=Out Of The Blue - Andy Narell
TTITLE16=An Oncoming Train - Downy Mildew
TTITLE17=Excerpts From Monster In A Box-Spaulding Gray
TTITLE18=Shine On - Degrees Of Motion
EXTD=
EXTT0=
EXTT1=Aaron Tippin
EXTT2=
EXTT3=
EXTT4=
EXTT5=
EXTT6=
EXTT7=
EXTT8=
EXTT9=
EXTT10=
EXTT11=
EXTT12=
EXTT13=Remingtons
EXTT14=In September - Will Ackerman
EXTT15=
EXTT16=
EXTT17=
EXTT18=
PLAYORDER=
